<?xml version="1.0" encoding="UTF-8" standalone="no"?>
<!DOCTYPE svg PUBLIC "-//W3C//DTD SVG 1.1//EN" "http://www.w3.org/Graphics/SVG/1.1/DTD/svg11.dtd">
<!-- Generated by Microsoft Visio, SVG Export library class diagram.svg Page-1 -->
<svg xmlns="http://www.w3.org/2000/svg" xmlns:xlink="http://www.w3.org/1999/xlink" xmlns:ev="http://www.w3.org/2001/xml-events"
		width="2.53472in" height="3.69618in" viewBox="0 0 182.5 266.125" xml:space="preserve" color-interpolation-filters="sRGB"
		class="st14">
	<style type="text/css">
	<![CDATA[
		.st1 {fill:#f2f2f2;stroke:#686868;stroke-linecap:butt;stroke-width:1.25}
		.st2 {fill:#ffffff;stroke:#686868;stroke-linecap:butt;stroke-width:1.25}
		.st3 {fill:#7f7f7f;font-family:Franklin Gothic Book;font-size:0.833336em}
		.st4 {fill:#7f7f7f;font-family:Franklin Gothic Book;font-size:1.00001em}
		.st5 {fill:#ffffff;fill-opacity:0}
		.st6 {stroke:#686868;stroke-linecap:butt;stroke-width:1.25;visibility:hidden}
		.st7 {font-size:1em}
		.st8 {fill:#ffffff}
		.st9 {stroke:#686868;stroke-dasharray:2,1;stroke-linecap:butt;stroke-width:1}
		.st10 {fill:#4b5968}
		.st11 {stroke:#3d4956;stroke-linecap:butt;stroke-width:1.25}
		.st12 {fill:#ffffff;font-family:Franklin Gothic Book;font-size:1.00001em}
		.st13 {fill:#ffffff;stroke:#3d4956;stroke-linecap:round;stroke-linejoin:round;stroke-width:1.25}
		.st14 {fill:none;fill-rule:evenodd;font-size:12px;overflow:visible;stroke-linecap:square;stroke-miterlimit:3}
	]]>
	</style>

	<g>
		<title>Page-1</title>
		<g id="group365-1" transform="translate(1.25,-179.21)">
			<title>Interface.365</title>
			<desc>Filter</desc>
			<g id="shape366-2">
				<title>Sheet.366</title>
				<path d="M0 266.13 L180 266.13 L180 223.37 L0 223.37 L0 266.13 Z" class="st1"/>
			</g>
			<g id="shape367-4" transform="translate(0,-42.7573)">
				<title>Sheet.367</title>
				<path d="M0 266.13 L180 266.13 L180 223.22 L0 223.22 L0 266.13 Z" class="st2"/>
			</g>
			<g id="shape368-6" transform="translate(0,-69.661)">
				<title>Sheet.368</title>
				<desc>&#60;&#60;Interface&#62;&#62;</desc>
				<text x="4" y="263.12" class="st3">&#60;&#60;Interface&#62;&#62;</text>			</g>
			<g id="shape369-8" transform="translate(171,-85.6647)">
				<title>Sheet.369</title>
				<desc>parameter</desc>
			</g>
			<g id="shape365-9">
				<text x="4" y="211.27" class="st4">Filter</text>			</g>
		</g>
		<g id="shape370-11" transform="translate(3.5,-195.714)">
			<title>Member.370</title>
			<desc>form_template : str model : Model</desc>
			<rect x="0" y="242.121" width="175.5" height="24.0037" class="st5"/>
			<rect x="0" y="242.121" width="175.5" height="24.0037" class="st6"/>
			<text x="9" y="251.12" class="st3">form_template : str <tspan x="9" dy="1.2em" class="st7">model </tspan>: Model</text>		</g>
		<g id="shape371-16" transform="translate(3.5,-193.464)">
			<title>Separator.371</title>
			<path d="M0 265 L175.5 265 L0 265 Z" class="st8"/>
			<path d="M0 265 L175.5 265" class="st9"/>
		</g>
		<g id="shape372-19" transform="translate(3.5,-181.46)">
			<title>Member.372</title>
			<desc>filter(params) : [Model]</desc>
			<rect x="0" y="254.121" width="175.5" height="12.0036" class="st5"/>
			<rect x="0" y="254.121" width="175.5" height="12.0036" class="st6"/>
			<text x="9" y="263.12" class="st3">filter(params) : [Model]</text>		</g>
		<g id="group422-23" transform="translate(11.375,-1.25)">
			<title>Note.422</title>
			<desc>Wraps calls to Model methods, optionally defining an HTML int...</desc>
			<g id="shape422-24">
				<path d="M0 266.13 L159.75 266.13 L159.75 135.63 L150.75 126.63 L0 126.63 L0 266.13 Z" class="st10"/>
				<path d="M79.87 126.63 L79.87 88.16" class="st11"/>
				<path d="M0 266.13 L159.75 266.13 L159.75 135.63 L150.75 126.63 L0 126.63 L0 266.13" class="st11"/>
				<text x="27.15" y="142.37" class="st12">Wraps calls to Model <tspan x="56.15" dy="1.2em" class="st7">methods</tspan>, <tspan
							x="9.69" dy="1.2em" class="st7">optionally defining an HTML </tspan><tspan x="16.24" dy="1.2em"
							class="st7">interface to allow custom </tspan><tspan x="49.11" dy="1.2em" class="st7">parameters</tspan>. <tspan
							x="23.15" dy="1.2em" class="st7">User should be able to </tspan><tspan x="5.79" dy="1.2em" class="st7">choose between the different </tspan><tspan
							x="65.59" dy="1.2em" class="st7">filters </tspan><tspan x="27.39" dy="1.2em" class="st7">in the view interface</tspan>.</text>			</g>
			<g id="shape423-37" transform="translate(150.75,-130.5)">
				<title>Sheet.423</title>
				<path d="M0 266.13 L9 266.13 L9 267.03 L9 266.13 L0 257.13 L-0.9 257.13 L0 257.13 L0 266.13 Z" class="st13"/>
			</g>
		</g>
	</g>
</svg>
