<?xml version="1.0" encoding="UTF-8" standalone="no"?>
<!DOCTYPE svg PUBLIC "-//W3C//DTD SVG 1.1//EN" "http://www.w3.org/Graphics/SVG/1.1/DTD/svg11.dtd">
<!-- Generated by Microsoft Visio, SVG Export mini-library-class-diagram.svg Page-1 -->
<svg xmlns="http://www.w3.org/2000/svg" xmlns:xlink="http://www.w3.org/1999/xlink" xmlns:ev="http://www.w3.org/2001/xml-events"
		width="11in" height="8.5in" viewBox="0 0 792 612" xml:space="preserve" color-interpolation-filters="sRGB" class="st18">
	<style type="text/css">
	<![CDATA[
		.st1 {fill:#f2f2f2;stroke:#686868;stroke-linecap:butt;stroke-width:1.25}
		.st2 {fill:#ffffff;stroke:#686868;stroke-linecap:butt;stroke-width:1.25}
		.st3 {fill:#7f7f7f;font-family:Franklin Gothic Book;font-size:0.833336em}
		.st4 {fill:#7f7f7f;font-family:Franklin Gothic Book;font-size:1.00001em}
		.st5 {fill:#ffffff;fill-opacity:0}
		.st6 {stroke:#686868;stroke-linecap:butt;stroke-width:1.25;visibility:hidden}
		.st7 {font-size:1em}
		.st8 {fill:#ffffff}
		.st9 {stroke:#686868;stroke-dasharray:2,1;stroke-linecap:butt;stroke-width:1}
		.st10 {marker-end:url(#mrkr14-48);stroke:#686868;stroke-dasharray:8,4;stroke-linecap:butt;stroke-width:1}
		.st11 {fill:#686868;fill-opacity:1;stroke:#686868;stroke-opacity:1;stroke-width:0.28409090909091}
		.st12 {stroke:#686868;stroke-linecap:butt;stroke-width:1}
		.st13 {fill:#ffffff;stroke:none;stroke-linecap:butt;stroke-width:7.2}
		.st14 {fill:#686868;font-family:Franklin Gothic Book;font-size:0.666664em}
		.st15 {fill:#7f7f7f;font-family:Franklin Gothic Book;font-size:1.00001em;font-style:italic}
		.st16 {marker-end:url(#mrkr14-48);stroke:#686868;stroke-linecap:butt;stroke-width:1}
		.st17 {marker-start:url(#mrkr22-176);stroke:#686868;stroke-linecap:butt;stroke-width:1}
		.st18 {fill:none;fill-rule:evenodd;font-size:12px;overflow:visible;stroke-linecap:square;stroke-miterlimit:3}
	]]>
	</style>

	<defs id="Markers">
		<g id="lend14">
			<path d="M 3 -1 L 0 0 L 3 1 L 3 -1 " style="stroke-linecap:round;stroke-linejoin:round;fill:none"/>
		</g>
		<marker id="mrkr14-48" class="st11" refX="-10.56" orient="auto" markerUnits="strokeWidth" overflow="visible">
			<use xlink:href="#lend14" transform="scale(-3.52,-3.52) "/>
		</marker>
		<g id="lend22">
			<path d="M 0 0 L 2.25 -1.125 L 4.5 0 L 2.25 1.125 L 0 0 " style="stroke-linecap:round;stroke-linejoin:round;fill:none"/>
		</g>
		<marker id="mrkr22-176" class="st11" refX="15.48" orient="auto" markerUnits="strokeWidth" overflow="visible">
			<use xlink:href="#lend22" transform="scale(3.52) "/>
		</marker>
	</defs>
	<g>
		<title>Page-1</title>
		<g id="group1-1" transform="translate(40.5,-458.542)">
			<title>Interface</title>
			<desc>Model</desc>
			<g id="shape2-2">
				<title>Sheet.2</title>
				<path d="M0 612 L180 612 L180 523.5 L0 523.5 L0 612 Z" class="st1"/>
			</g>
			<g id="shape3-4" transform="translate(0,-88.5039)">
				<title>Sheet.3</title>
				<path d="M0 612 L180 612 L180 569.09 L0 569.09 L0 612 Z" class="st2"/>
			</g>
			<g id="shape4-6" transform="translate(0,-115.408)">
				<title>Sheet.4</title>
				<desc>&#60;&#60;Interface&#62;&#62;</desc>
				<text x="4" y="609" class="st3">&#60;&#60;Interface&#62;&#62;</text>			</g>
			<g id="shape5-8" transform="translate(171,-131.411)">
				<title>Sheet.5</title>
				<desc>parameter</desc>
			</g>
			<g id="shape1-9">
				<text x="4" y="511.39" class="st4">Model</text>			</g>
		</g>
		<g id="shape6-11" transform="translate(42.75,-460.792)">
			<title>Member.16</title>
			<desc>__init__(*args, **kwargs) filter(**kwargs) validate() save() ...</desc>
			<rect x="0" y="527.996" width="175.5" height="84.0039" class="st5"/>
			<rect x="0" y="527.996" width="175.5" height="84.0039" class="st6"/>
			<text x="9" y="537" class="st3">__init__(*args, **kwargs) <tspan x="9" dy="1.2em" class="st7">filter</tspan>(**kwargs) <tspan
						x="9" dy="1.2em" class="st7">validate</tspan>() <tspan x="9" dy="1.2em" class="st7">save</tspan>() <tspan
						x="9" dy="1.2em" class="st7">delete</tspan>() <tspan x="9" dy="1.2em" class="st7">id</tspan>() <tspan x="9"
						dy="1.2em" class="st7">from</tspan>_id(id)</text>		</g>
		<g id="group7-21" transform="translate(270,-495.746)">
			<title>Class</title>
			<desc>Patron</desc>
			<g id="shape8-22">
				<title>Sheet.8</title>
				<path d="M0 612 L180 612 L180 545.25 L0 545.25 L0 612 Z" class="st1"/>
			</g>
			<g id="shape9-24" transform="translate(0,-66.7537)">
				<title>Sheet.9</title>
				<path d="M0 612 L180 612 L180 580.5 L0 580.5 L0 612 Z" class="st2"/>
			</g>
			<g id="shape11-26" transform="translate(171,-98.2537)">
				<title>Sheet.11</title>
				<desc>parameter</desc>
			</g>
			<g id="shape7-27">
				<text x="4" y="533.1" class="st4">Patron</text>			</g>
		</g>
		<g id="shape12-29" transform="translate(272.25,-512.246)">
			<title>Member</title>
			<desc>id name phone address</desc>
			<rect x="0" y="563.996" width="175.5" height="48.0037" class="st5"/>
			<rect x="0" y="563.996" width="175.5" height="48.0037" class="st6"/>
			<text x="9" y="573" class="st3">id <tspan x="9" dy="1.2em" class="st7">name </tspan><tspan x="9" dy="1.2em" class="st7">phone </tspan><tspan
						x="9" dy="1.2em" class="st7">address</tspan></text>		</g>
		<g id="shape13-36" transform="translate(272.25,-509.996)">
			<title>Separator</title>
			<path d="M0 610.87 L175.5 610.87 L0 610.87 Z" class="st8"/>
			<path d="M0 610.87 L175.5 610.87" class="st9"/>
		</g>
		<g id="shape14-39" transform="translate(272.25,-497.996)">
			<title>Member.8</title>
			<rect x="0" y="600" width="175.5" height="12" class="st5"/>
			<rect x="0" y="600" width="175.5" height="12" class="st6"/>
		</g>
		<g id="group15-42" transform="translate(270,-544.873)">
			<title>Interface Realization</title>
			<g id="shape15-43">
				<path d="M0 612 L-36 612 L-36 632.63 L-38.94 632.63" class="st10"/>
			</g>
		</g>
		<g id="group20-49" transform="translate(558,-505.121)">
			<title>Class.230</title>
			<desc>PatronView</desc>
			<g id="shape21-50">
				<title>Sheet.21</title>
				<path d="M0 612 L180 612 L180 581.25 L0 581.25 L0 612 Z" class="st1"/>
			</g>
			<g id="shape22-52" transform="translate(0,-30.7536)">
				<title>Sheet.22</title>
				<path d="M0 612 L180 612 L180 580.5 L0 580.5 L0 612 Z" class="st2"/>
			</g>
			<g id="shape24-54" transform="translate(171,-62.2536)">
				<title>Sheet.24</title>
				<desc>parameter</desc>
			</g>
			<g id="shape20-55">
				<text x="4" y="569.1" class="st4">PatronView</text>			</g>
		</g>
		<g id="shape25-57" transform="translate(560.25,-521.625)">
			<title>Member.235</title>
			<rect x="0" y="600" width="175.5" height="12" class="st5"/>
			<rect x="0" y="600" width="175.5" height="12" class="st6"/>
		</g>
		<g id="shape26-60" transform="translate(560.25,-519.375)">
			<title>Separator.236</title>
			<path d="M0 610.87 L175.5 610.87 L0 610.87 Z" class="st8"/>
			<path d="M0 610.87 L175.5 610.87" class="st9"/>
		</g>
		<g id="shape27-63" transform="translate(560.25,-507.371)">
			<title>Member.237</title>
			<desc>dispatch_request()</desc>
			<rect x="0" y="599.996" width="175.5" height="12.0036" class="st5"/>
			<rect x="0" y="599.996" width="175.5" height="12.0036" class="st6"/>
			<text x="9" y="609" class="st3">dispatch_request()</text>		</g>
		<g id="group28-67" transform="translate(558,-531.561)">
			<title>Association</title>
			<desc>used by</desc>
			<g id="shape28-68">
				<path d="M0 607.31 L-36 607.31 L-36 598.69 L-108 598.69" class="st12"/>
				<rect x="-62.7538" y="593.888" width="26.1326" height="9.59985" class="st13"/>
				<text x="-62.75" y="601.09" class="st14">used by</text>			</g>
		</g>
		<g id="group34-73" transform="translate(558,-289.871)">
			<title>Class.332</title>
			<desc>GenericView</desc>
			<g id="shape35-74">
				<title>Sheet.35</title>
				<path d="M0 612 L180 612 L180 449.24 L0 449.24 L0 612 Z" class="st1"/>
			</g>
			<g id="shape36-76" transform="translate(0,-162.758)">
				<title>Sheet.36</title>
				<path d="M0 612 L180 612 L180 580.5 L0 580.5 L0 612 Z" class="st2"/>
			</g>
			<g id="shape38-78" transform="translate(171,-194.258)">
				<title>Sheet.38</title>
				<desc>parameter</desc>
			</g>
			<g id="shape34-79">
				<text x="4" y="437.09" class="st15">GenericView</text>			</g>
		</g>
		<g id="shape39-81" transform="translate(560.25,-378.375)">
			<title>Member.337</title>
			<desc>fields : [Field] filters : {str: Filter} model : Model tvg : ...</desc>
			<rect x="0" y="539.996" width="175.5" height="72.0038" class="st5"/>
			<rect x="0" y="539.996" width="175.5" height="72.0038" class="st6"/>
			<text x="9" y="549" class="st3">fields : [Field] <tspan x="9" dy="1.2em" class="st7">filters </tspan>: {str: Filter} <tspan
						x="9" dy="1.2em" class="st7">model </tspan>: Model <tspan x="9" dy="1.2em" class="st7">tvg </tspan>: TableViewGenerator <tspan
						x="9" dy="1.2em" class="st7">dvg </tspan>: DetailViewGenerator <tspan x="9" dy="1.2em" class="st7">base</tspan>_template : str</text>		</g>
		<g id="shape40-90" transform="translate(560.25,-376.125)">
			<title>Separator.338</title>
			<path d="M0 610.87 L175.5 610.87 L0 610.87 Z" class="st8"/>
			<path d="M0 610.87 L175.5 610.87" class="st9"/>
		</g>
		<g id="shape41-93" transform="translate(560.25,-292.121)">
			<title>Member.339</title>
			<desc>dispatch_request() # GET display_table() # list view display_...</desc>
			<rect x="0" y="527.996" width="175.5" height="84.0039" class="st5"/>
			<rect x="0" y="527.996" width="175.5" height="84.0039" class="st6"/>
			<text x="9" y="537" class="st3">dispatch_request() <tspan x="9" dy="1.2em" class="st7"># </tspan>GET <tspan x="9"
						dy="1.2em" class="st7">display</tspan>_table()  # list view <tspan x="9" dy="1.2em" class="st7">display</tspan>_detail(id)  # detail view <tspan
						x="9" dy="1.2em" class="st7">display</tspan>_form(id)  # data entry <tspan x="9" dy="1.2em" class="st7"># </tspan>POST <tspan
						x="9" dy="1.2em" class="st7">process</tspan>_form()</text>		</g>
		<g id="group44-103" transform="translate(639,-505.121)">
			<title>Inheritance</title>
			<g id="shape44-104">
				<path d="M9 612 L9 622.43" class="st16"/>
			</g>
		</g>
		<g id="group49-109" transform="translate(270,-366.746)">
			<title>Class.264</title>
			<desc>EditableDetailViewGenerator</desc>
			<g id="shape50-110">
				<title>Sheet.50</title>
				<path d="M0 612 L180 612 L180 569.25 L0 569.25 L0 612 Z" class="st1"/>
			</g>
			<g id="shape51-112" transform="translate(0,-42.7537)">
				<title>Sheet.51</title>
				<path d="M0 612 L180 612 L180 580.5 L0 580.5 L0 612 Z" class="st2"/>
			</g>
			<g id="shape53-114" transform="translate(171,-74.2537)">
				<title>Sheet.53</title>
				<desc>parameter</desc>
			</g>
			<g id="shape49-115">
				<text x="4" y="557.1" class="st4">EditableDetailViewGenerator</text>			</g>
		</g>
		<g id="shape54-117" transform="translate(272.25,-395.25)">
			<title>Member.269</title>
			<rect x="0" y="600" width="175.5" height="12" class="st5"/>
			<rect x="0" y="600" width="175.5" height="12" class="st6"/>
		</g>
		<g id="shape55-120" transform="translate(272.25,-393)">
			<title>Separator.270</title>
			<path d="M0 610.87 L175.5 610.87 L0 610.87 Z" class="st8"/>
			<path d="M0 610.87 L175.5 610.87" class="st9"/>
		</g>
		<g id="shape56-123" transform="translate(272.25,-368.996)">
			<title>Member.271</title>
			<desc>render_form() process_form()</desc>
			<rect x="0" y="587.996" width="175.5" height="24.0037" class="st5"/>
			<rect x="0" y="587.996" width="175.5" height="24.0037" class="st6"/>
			<text x="9" y="597" class="st3">render_form() <tspan x="9" dy="1.2em" class="st7">process</tspan>_form()</text>		</g>
		<g id="group59-128" transform="translate(272.25,-247.339)">
			<title>Class.248</title>
			<desc>TableViewGenerator</desc>
			<g id="shape60-129">
				<title>Sheet.60</title>
				<path d="M0 612 L180 612 L180 581.25 L0 581.25 L0 612 Z" class="st1"/>
			</g>
			<g id="shape61-131" transform="translate(0,-30.75)">
				<title>Sheet.61</title>
				<path d="M0 612 L180 612 L180 580.5 L0 580.5 L0 612 Z" class="st2"/>
			</g>
			<g id="shape63-133" transform="translate(171,-62.25)">
				<title>Sheet.63</title>
				<desc>parameter</desc>
			</g>
			<g id="shape59-134">
				<text x="4" y="569.1" class="st4">TableViewGenerator</text>			</g>
		</g>
		<g id="shape64-136" transform="translate(274.5,-263.839)">
			<title>Member.253</title>
			<rect x="0" y="600" width="175.5" height="12" class="st5"/>
			<rect x="0" y="600" width="175.5" height="12" class="st6"/>
		</g>
		<g id="shape65-139" transform="translate(274.5,-261.589)">
			<title>Separator.254</title>
			<path d="M0 610.87 L175.5 610.87 L0 610.87 Z" class="st8"/>
			<path d="M0 610.87 L175.5 610.87" class="st9"/>
		</g>
		<g id="shape66-142" transform="translate(274.5,-249.589)">
			<title>Member.255</title>
			<rect x="0" y="600" width="175.5" height="12" class="st5"/>
			<rect x="0" y="600" width="175.5" height="12" class="st6"/>
		</g>
		<g id="group67-145" transform="translate(38.25,-283.335)">
			<title>Interface.297</title>
			<desc>ViewGenerator</desc>
			<g id="shape68-146">
				<title>Sheet.68</title>
				<path d="M0 612 L180 612 L180 533.24 L0 533.24 L0 612 Z" class="st1"/>
			</g>
			<g id="shape69-148" transform="translate(0,-78.7574)">
				<title>Sheet.69</title>
				<path d="M0 612 L180 612 L180 569.09 L0 569.09 L0 612 Z" class="st2"/>
			</g>
			<g id="shape70-150" transform="translate(0,-105.661)">
				<title>Sheet.70</title>
				<desc>&#60;&#60;Interface&#62;&#62;</desc>
				<text x="4" y="609" class="st3">&#60;&#60;Interface&#62;&#62;</text>			</g>
			<g id="shape71-152" transform="translate(171,-121.665)">
				<title>Sheet.71</title>
				<desc>parameter</desc>
			</g>
			<g id="shape67-153">
				<text x="4" y="521.14" class="st4">ViewGenerator</text>			</g>
		</g>
		<g id="shape72-155" transform="translate(40.5,-311.839)">
			<title>Member.302</title>
			<desc>fields : [ViewField] template : str data : [Model] model:Model</desc>
			<rect x="0" y="563.996" width="175.5" height="48.0037" class="st5"/>
			<rect x="0" y="563.996" width="175.5" height="48.0037" class="st6"/>
			<text x="9" y="573" class="st3">fields : [ViewField] <tspan x="9" dy="1.2em" class="st7">template </tspan>: str <tspan
						x="9" dy="1.2em" class="st7">data </tspan>: [Model] <tspan x="9" dy="1.2em" class="st7">model</tspan>:Model</text>		</g>
		<g id="shape73-162" transform="translate(40.5,-309.589)">
			<title>Separator.303</title>
			<path d="M0 610.87 L175.5 610.87 L0 610.87 Z" class="st8"/>
			<path d="M0 610.87 L175.5 610.87" class="st9"/>
		</g>
		<g id="shape74-165" transform="translate(40.5,-285.585)">
			<title>Member.304</title>
			<desc>__init__(data : [Model]) render() : str</desc>
			<rect x="0" y="587.996" width="175.5" height="24.0037" class="st5"/>
			<rect x="0" y="587.996" width="175.5" height="24.0037" class="st6"/>
			<text x="9" y="597" class="st3">__init__(data : [Model]) <tspan x="9" dy="1.2em" class="st7">render</tspan>() : str</text>		</g>
		<g id="group77-170" transform="translate(558,-386.437)">
			<title>Aggregation</title>
			<g id="shape77-171">
				<path d="M-15.48 611.44 L-15.84 611.44 L-36 611.44 L-36 594.56 L-108 594.56" class="st17"/>
			</g>
		</g>
		<g id="group82-177" transform="translate(558,-387)">
			<title>Aggregation.82</title>
			<g id="shape82-178">
				<path d="M-15.48 612 L-15.84 612 L-36 612 L-36 720.54 L-105.75 720.54" class="st17"/>
			</g>
		</g>
		<g id="group87-183" transform="translate(218.25,-344.168)">
			<title>Interface Realization.87</title>
			<g id="shape87-184">
				<path d="M0 612 L36 612 L36 677.7 L43.44 677.7" class="st10"/>
			</g>
		</g>
		<g id="group92-189" transform="translate(218.25,-344.168)">
			<title>Interface Realization.92</title>
			<g id="shape92-190">
				<path d="M0 612 L36 612 L36 552.29 L41.19 552.29" class="st10"/>
			</g>
		</g>
		<g id="group97-195" transform="translate(120.375,-405)">
			<title>Aggregation.97</title>
			<g id="shape97-196">
				<path d="M7.87 596.52 L7.87 596.16 L7.87 576 L10.12 576 L10.12 558.46" class="st17"/>
			</g>
		</g>
		<g id="group110-201" transform="translate(38.25,-117.743)">
			<title>Class.256</title>
			<desc>ViewField</desc>
			<g id="shape111-202">
				<title>Sheet.111</title>
				<path d="M0 612 L180 612 L180 509.24 L0 509.24 L0 612 Z" class="st1"/>
			</g>
			<g id="shape112-204" transform="translate(0,-102.757)">
				<title>Sheet.112</title>
				<path d="M0 612 L180 612 L180 580.5 L0 580.5 L0 612 Z" class="st2"/>
			</g>
			<g id="shape114-206" transform="translate(171,-134.257)">
				<title>Sheet.114</title>
				<desc>parameter</desc>
			</g>
			<g id="shape110-207">
				<text x="4" y="497.09" class="st15">ViewField</text>			</g>
		</g>
		<g id="shape115-209" transform="translate(40.5,-182.246)">
			<title>Member.261</title>
			<desc>attribute_name display_name widget : ViewFieldWidget</desc>
			<rect x="0" y="575.996" width="175.5" height="36.0037" class="st5"/>
			<rect x="0" y="575.996" width="175.5" height="36.0037" class="st6"/>
			<text x="9" y="585" class="st3">attribute_name <tspan x="9" dy="1.2em" class="st7">display</tspan>_name <tspan x="9"
						dy="1.2em" class="st7">widget </tspan>: ViewFieldWidget</text>		</g>
		<g id="shape116-215" transform="translate(40.5,-179.996)">
			<title>Separator.262</title>
			<path d="M0 610.87 L175.5 610.87 L0 610.87 Z" class="st8"/>
			<path d="M0 610.87 L175.5 610.87" class="st9"/>
		</g>
		<g id="shape117-218" transform="translate(40.5,-119.993)">
			<title>Member.263</title>
			<desc>__init__(attribute_name, display_name) retrieve(obj : Model) ...</desc>
			<rect x="0" y="551.996" width="175.5" height="60.0038" class="st5"/>
			<rect x="0" y="551.996" width="175.5" height="60.0038" class="st6"/>
			<text x="9" y="561" class="st3">__init__(attribute_name, <tspan x="9" dy="1.2em" class="st7">display</tspan>_name) <tspan
						x="9" dy="1.2em" class="st7">retrieve</tspan>(obj : Model)  # extracts field <tspan x="9" dy="1.2em"
						class="st7">value from Model </tspan><tspan x="9" dy="1.2em" class="st7">update</tspan>_model(obj : Model, value)</text>		</g>
		<g id="group120-226" transform="translate(119.25,-283.335)">
			<title>Aggregation.120</title>
			<g id="shape120-227">
				<path d="M9 627.48 L9 627.84 L9 643.34" class="st17"/>
			</g>
		</g>
		<g id="group133-232" transform="translate(274.5,-144)">
			<title>Class.272</title>
			<desc>ViewFieldWidget</desc>
			<g id="shape134-233">
				<title>Sheet.134</title>
				<path d="M0 612 L180 612 L180 557.24 L0 557.24 L0 612 Z" class="st1"/>
			</g>
			<g id="shape135-235" transform="translate(0,-54.7573)">
				<title>Sheet.135</title>
				<path d="M0 612 L180 612 L180 580.5 L0 580.5 L0 612 Z" class="st2"/>
			</g>
			<g id="shape137-237" transform="translate(171,-86.2573)">
				<title>Sheet.137</title>
				<desc>parameter</desc>
			</g>
			<g id="shape133-238">
				<text x="4" y="545.09" class="st15">ViewFieldWidget</text>			</g>
		</g>
		<g id="shape138-240" transform="translate(276.75,-172.504)">
			<title>Member.277</title>
			<desc>display_template edit_template</desc>
			<rect x="0" y="587.996" width="175.5" height="24.0037" class="st5"/>
			<rect x="0" y="587.996" width="175.5" height="24.0037" class="st6"/>
			<text x="9" y="597" class="st3">display_template <tspan x="9" dy="1.2em" class="st7">edit</tspan>_template</text>		</g>
		<g id="shape139-245" transform="translate(276.75,-170.254)">
			<title>Separator.278</title>
			<path d="M0 610.87 L175.5 610.87 L0 610.87 Z" class="st8"/>
			<path d="M0 610.87 L175.5 610.87" class="st9"/>
		</g>
		<g id="shape140-248" transform="translate(276.75,-146.25)">
			<title>Member.279</title>
			<desc>render_display(value=None) : str render_edit(value=None) : str</desc>
			<rect x="0" y="587.996" width="175.5" height="24.0037" class="st5"/>
			<rect x="0" y="587.996" width="175.5" height="24.0037" class="st6"/>
			<text x="9" y="597" class="st3">render_display(value=None) : str <tspan x="9" dy="1.2em" class="st7">render</tspan>_edit(value=None) : str</text>		</g>
		<g id="group143-253" transform="translate(218.25,-177)">
			<title>Aggregation.143</title>
			<g id="shape143-254">
				<path d="M15.48 604.13 L15.84 604.13 L36 604.13 L36 601.87 L56.25 601.87" class="st17"/>
			</g>
		</g>
		<g id="group148-259" transform="translate(38.25,-18)">
			<title>Class.383</title>
			<desc>TextField</desc>
			<g id="shape149-260">
				<title>Sheet.149</title>
				<path d="M0 612 L180 612 L180 581.24 L0 581.24 L0 612 Z" class="st1"/>
			</g>
			<g id="shape150-262" transform="translate(0,-30.7573)">
				<title>Sheet.150</title>
				<path d="M0 612 L180 612 L180 580.5 L0 580.5 L0 612 Z" class="st2"/>
			</g>
			<g id="shape152-264" transform="translate(171,-62.2573)">
				<title>Sheet.152</title>
				<desc>parameter</desc>
			</g>
			<g id="shape148-265">
				<text x="4" y="569.09" class="st4">TextField</text>			</g>
		</g>
		<g id="shape153-267" transform="translate(40.5,-34.5036)">
			<title>Member.388</title>
			<desc>widget = TextboxWidget</desc>
			<rect x="0" y="599.996" width="175.5" height="12.0036" class="st5"/>
			<rect x="0" y="599.996" width="175.5" height="12.0036" class="st6"/>
			<text x="9" y="609" class="st3">widget = TextboxWidget</text>		</g>
		<g id="shape154-271" transform="translate(40.5,-32.2536)">
			<title>Separator.389</title>
			<path d="M0 610.87 L175.5 610.87 L0 610.87 Z" class="st8"/>
			<path d="M0 610.87 L175.5 610.87" class="st9"/>
		</g>
		<g id="shape155-274" transform="translate(40.5,-20.25)">
			<title>Member.390</title>
			<desc>__init__(max_length)</desc>
			<rect x="0" y="599.996" width="175.5" height="12.0036" class="st5"/>
			<rect x="0" y="599.996" width="175.5" height="12.0036" class="st6"/>
			<text x="9" y="609" class="st3">__init__(max_length)</text>		</g>
		<g id="group156-278" transform="translate(274.5,-18)">
			<title>Class.280</title>
			<desc>TextWidget</desc>
			<g id="shape157-279">
				<title>Sheet.157</title>
				<path d="M0 612 L180 612 L180 581.25 L0 581.25 L0 612 Z" class="st1"/>
			</g>
			<g id="shape158-281" transform="translate(0,-30.7536)">
				<title>Sheet.158</title>
				<path d="M0 612 L180 612 L180 580.5 L0 580.5 L0 612 Z" class="st2"/>
			</g>
			<g id="shape160-283" transform="translate(171,-62.2536)">
				<title>Sheet.160</title>
				<desc>parameter</desc>
			</g>
			<g id="shape156-284">
				<text x="4" y="569.1" class="st4">TextWidget</text>			</g>
		</g>
		<g id="shape161-286" transform="translate(276.75,-34.5036)">
			<title>Member.285</title>
			<rect x="0" y="600" width="175.5" height="12" class="st5"/>
			<rect x="0" y="600" width="175.5" height="12" class="st6"/>
		</g>
		<g id="shape162-289" transform="translate(276.75,-32.2536)">
			<title>Separator.286</title>
			<path d="M0 610.87 L175.5 610.87 L0 610.87 Z" class="st8"/>
			<path d="M0 610.87 L175.5 610.87" class="st9"/>
		</g>
		<g id="shape163-292" transform="translate(276.75,-20.25)">
			<title>Member.287</title>
			<desc>__init__(maxlength)</desc>
			<rect x="0" y="599.996" width="175.5" height="12.0036" class="st5"/>
			<rect x="0" y="599.996" width="175.5" height="12.0036" class="st6"/>
			<text x="9" y="609" class="st3">__init__(maxlength)</text>		</g>
		<g id="group164-296" transform="translate(119.25,-80.2573)">
			<title>Inheritance.164</title>
			<g id="shape164-297">
				<path d="M9 612 L9 585.07" class="st16"/>
			</g>
		</g>
		<g id="group169-302" transform="translate(355.5,-80.2536)">
			<title>Inheritance.169</title>
			<g id="shape169-303">
				<path d="M9 612 L9 558.81" class="st16"/>
			</g>
		</g>
		<g id="group174-308" transform="translate(218.25,-58.1277)">
			<title>Aggregation.174</title>
			<g id="shape174-309">
				<path d="M15.48 621 L15.84 621 L36 621 L36 621 L56.25 621" class="st17"/>
			</g>
		</g>
		<g id="group179-314" transform="translate(558,-172.714)">
			<title>Interface.365</title>
			<desc>Filter</desc>
			<g id="shape180-315">
				<title>Sheet.180</title>
				<path d="M0 612 L180 612 L180 569.24 L0 569.24 L0 612 Z" class="st1"/>
			</g>
			<g id="shape181-317" transform="translate(0,-42.7573)">
				<title>Sheet.181</title>
				<path d="M0 612 L180 612 L180 569.09 L0 569.09 L0 612 Z" class="st2"/>
			</g>
			<g id="shape182-319" transform="translate(0,-69.661)">
				<title>Sheet.182</title>
				<desc>&#60;&#60;Interface&#62;&#62;</desc>
				<text x="4" y="609" class="st3">&#60;&#60;Interface&#62;&#62;</text>			</g>
			<g id="shape183-321" transform="translate(171,-85.6647)">
				<title>Sheet.183</title>
				<desc>parameter</desc>
			</g>
			<g id="shape179-322">
				<text x="4" y="557.14" class="st4">Filter</text>			</g>
		</g>
		<g id="shape184-324" transform="translate(560.25,-189.217)">
			<title>Member.370</title>
			<desc>form_template : str model : Model</desc>
			<rect x="0" y="587.996" width="175.5" height="24.0037" class="st5"/>
			<rect x="0" y="587.996" width="175.5" height="24.0037" class="st6"/>
			<text x="9" y="597" class="st3">form_template : str <tspan x="9" dy="1.2em" class="st7">model </tspan>: Model</text>		</g>
		<g id="shape185-329" transform="translate(560.25,-186.967)">
			<title>Separator.371</title>
			<path d="M0 610.87 L175.5 610.87 L0 610.87 Z" class="st8"/>
			<path d="M0 610.87 L175.5 610.87" class="st9"/>
		</g>
		<g id="shape186-332" transform="translate(560.25,-174.964)">
			<title>Member.372</title>
			<desc>filter(params) : [Model]</desc>
			<rect x="0" y="599.996" width="175.5" height="12.0036" class="st5"/>
			<rect x="0" y="599.996" width="175.5" height="12.0036" class="st6"/>
			<text x="9" y="609" class="st3">filter(params) : [Model]</text>		</g>
		<g id="group189-336" transform="translate(639,-289.871)">
			<title>Aggregation.189</title>
			<g id="shape189-337">
				<path d="M9 627.48 L9 627.84 L9 643.49" class="st17"/>
			</g>
		</g>
	</g>
</svg>
